<svg width="100" height="100" viewBox="0 0 100 100" fill="none" xmlns="http://www.w3.org/2000/svg">
<path d="M87.5 6.25C89.1576 6.25 90.7473 6.90848 91.9194 8.08058C93.0915 9.25268 93.75 10.8424 93.75 12.5V87.5C93.75 89.1576 93.0915 90.7473 91.9194 91.9194C90.7473 93.0915 89.1576 93.75 87.5 93.75H12.5C10.8424 93.75 9.25268 93.0915 8.08058 91.9194C6.90848 90.7473 6.25 89.1576 6.25 87.5V12.5C6.25 10.8424 6.90848 9.25268 8.08058 8.08058C9.25268 6.90848 10.8424 6.25 12.5 6.25H87.5ZM12.5 0C9.18479 0 6.00537 1.31696 3.66117 3.66117C1.31696 6.00537 0 9.18479 0 12.5L0 87.5C0 90.8152 1.31696 93.9946 3.66117 96.3388C6.00537 98.683 9.18479 100 12.5 100H87.5C90.8152 100 93.9946 98.683 96.3388 96.3388C98.683 93.9946 100 90.8152 100 87.5V12.5C100 9.18479 98.683 6.00537 96.3388 3.66117C93.9946 1.31696 90.8152 0 87.5 0L12.5 0Z" fill="white"/>
<path d="M42.8375 29.0375C43.1286 29.3278 43.3594 29.6726 43.517 30.0523C43.6745 30.432 43.7556 30.839 43.7556 31.25C43.7556 31.661 43.6745 32.0681 43.517 32.4477C43.3594 32.8274 43.1286 33.1722 42.8375 33.4625L26.2938 50L42.8375 66.5375C43.4243 67.1243 43.754 67.9202 43.754 68.75C43.754 69.5799 43.4243 70.3757 42.8375 70.9625C42.2507 71.5493 41.4549 71.879 40.625 71.879C39.7952 71.879 38.9993 71.5493 38.4125 70.9625L19.6625 52.2125C19.3715 51.9222 19.1406 51.5774 18.9831 51.1977C18.8255 50.8181 18.7444 50.4111 18.7444 50C18.7444 49.589 18.8255 49.182 18.9831 48.8023C19.1406 48.4226 19.3715 48.0778 19.6625 47.7875L38.4125 29.0375C38.7028 28.7465 39.0477 28.5156 39.4273 28.358C39.807 28.2005 40.214 28.1194 40.625 28.1194C41.0361 28.1194 41.4431 28.2005 41.8227 28.358C42.2024 28.5156 42.5472 28.7465 42.8375 29.0375V29.0375ZM57.1625 29.0375C56.8715 29.3278 56.6406 29.6726 56.4831 30.0523C56.3255 30.432 56.2444 30.839 56.2444 31.25C56.2444 31.661 56.3255 32.0681 56.4831 32.4477C56.6406 32.8274 56.8715 33.1722 57.1625 33.4625L73.7063 50L57.1625 66.5375C56.5757 67.1243 56.2461 67.9202 56.2461 68.75C56.2461 69.5799 56.5757 70.3757 57.1625 70.9625C57.7493 71.5493 58.5452 71.879 59.375 71.879C60.2049 71.879 61.0007 71.5493 61.5875 70.9625L80.3375 52.2125C80.6286 51.9222 80.8594 51.5774 81.017 51.1977C81.1745 50.8181 81.2556 50.4111 81.2556 50C81.2556 49.589 81.1745 49.182 81.017 48.8023C80.8594 48.4226 80.6286 48.0778 80.3375 47.7875L61.5875 29.0375C61.2972 28.7465 60.9524 28.5156 60.5727 28.358C60.1931 28.2005 59.7861 28.1194 59.375 28.1194C58.964 28.1194 58.557 28.2005 58.1773 28.358C57.7977 28.5156 57.4528 28.7465 57.1625 29.0375V29.0375Z" fill="white"/>
</svg>
