<svg width="100" height="134" viewBox="0 0 100 134" fill="none" xmlns="http://www.w3.org/2000/svg">
<path d="M25.0111 0H39.3333V5.98889H31V11.9778H39.3333V17.9667H25.0111V0Z" fill="white"/>
<path d="M42.1944 0H56.5222V5.21111H48.1889V6.25H56.5222V18.2278H42.1944V12.7611H50.5278V11.7167H42.1944V0Z" fill="white"/>
<path d="M59.3889 0H73.7056V5.21111H65.3722V6.25H73.7056V18.2278H59.3889V12.7611H67.7222V11.7167H59.3889V0Z" fill="white"/>
<path fill-rule="evenodd" clip-rule="evenodd" d="M49.95 133.333L11.3722 122.622L0 26.2056H100L88.6333 122.611L49.95 133.333ZM22.4833 69.85L23.5444 81.6722H64.5278L63.1556 97.0056L49.9667 100.572H49.9556L36.7889 97.0167L35.9444 87.5889H24.0722L25.7278 106.156L49.95 112.878L74.2111 106.156L77.1667 73.0222L77.4556 69.85L79.5889 45.9111H20.3556L21.4333 57.7389H66.6333L65.5556 69.85H22.4833Z" fill="white"/>
</svg>
