<svg width="100" height="134" viewBox="0 0 100 134" fill="none" xmlns="http://www.w3.org/2000/svg">
<path d="M11.5556 0H17.5667V5.93889H23.0667V0H29.0778V17.9778H23.0667V11.9611H17.5667V17.9778H11.5611V0H11.5556Z" fill="#FBFBFB"/>
<path d="M36.9778 5.96111H31.6889V0H48.2833V5.96111H42.9889V17.9778H36.9778V5.96111Z" fill="#FBFBFB"/>
<path d="M50.9167 0H57.1833L61.0389 6.31667L64.8889 0H71.1556V17.9778H65.1722V9.06667L61.0389 15.4611H60.9333L56.7944 9.07222V17.9778H50.9167V0Z" fill="#FBFBFB"/>
<path d="M74.1444 0H80.1611V12.0389H88.6055V17.9833H74.1444V0Z" fill="#FBFBFB"/>
<path fill-rule="evenodd" clip-rule="evenodd" d="M11.3667 122.622L0 26.2056H100L88.6278 122.611L49.9444 133.333L11.3667 122.622ZM34.35 69.8445L33.2722 57.7333H78.5222L79.5778 45.9111H20.3556L23.5444 81.6722H64.5278L63.1556 97.0056L49.9667 100.572H49.9556L36.7889 97.0167L35.9444 87.5889H24.0667L25.7222 106.156L49.9444 112.878L74.2056 106.156L77.1611 73.0222L77.45 69.85H34.35V69.8445Z" fill="#FBFBFB"/>
</svg>
