<svg width="842" height="397" viewBox="0 0 842 397" fill="none" xmlns="http://www.w3.org/2000/svg">
<path d="M308.2 6.10001L298 12V24.4V36.8L307.8 42.5C313.1 45.6 318 48.1 318.5 48.1C319.1 48.1 323.9 45.6 329.3 42.5L339 36.8V24.5V12.1L333.3 8.70001C330.1 6.90001 325.4 4.20001 322.9 2.70001L318.4 0.100005L308.2 6.10001Z" fill="#B9AEE1"/>
<path d="M20.8 15.9C12.7 20.6 4.7 25.3 3 26.2L0 27.9V48.7V69.5L17.9 79.8L35.8 90L48.1 82.9C54.9 79 63.1 74.2 66.3 72.3L72 68.9V48.5V28.2L57.3 19.7C49.1 15.1 40.9 10.4 39 9.3L35.5 7.3L20.8 15.9Z" fill="#B9AEE1"/>
<path d="M469.8 15.6C464.6 18.5 459.7 21.6 459.1 22.4C458.2 23.5 458 27 458.6 35.5L459.3 47L469 52.5C474.4 55.5 479.2 58 479.6 58C480 58 484.8 55.5 490.2 52.4L500 46.8V34.4V22.1L491.8 17.2C487.2 14.5 482.6 11.8 481.4 11.2C479.7 10.3 477.9 11 469.8 15.6Z" fill="#B9AEE1"/>
<path d="M756.5 26L734.5 38.8L734.2 65.3L734 91.8L740.2 95.3C743.7 97.2 753.7 102.9 762.5 108C771.3 113.1 779 117.3 779.6 117.3C780.2 117.3 790.7 111.6 802.9 104.5L825 91.7V65.4V39.1L818.3 35.1C790.1 18.7 780.1 13 779.3 13.1C778.9 13.1 768.6 18.9 756.5 26Z" fill="#B9AEE1"/>
<path d="M91 29L79.5 35.8V50.1V64.4L91 71.1C97.3 74.9 103.3 77.8 104.2 77.6C105.2 77.4 110.9 74.3 116.9 70.9L127.9 64.5L128 49.7C128 41.6 127.6 35 127.2 35C126.8 35 121.5 32.1 115.5 28.5C109.4 25 104.1 22.1 103.5 22.1C103 22.1 97.3 25.2 91 29Z" fill="#B9AEE1"/>
<path d="M280.8 27.6C277.5 29.7 277 30.5 277 33.9C277 37.3 277.5 38.1 280.7 40.1C284.3 42.4 284.3 42.4 287.9 40.4C291.1 38.7 291.5 38 291.8 34C292 29.7 291.9 29.4 288.3 27.4L284.5 25.3L280.8 27.6Z" fill="#B9AEE1"/>
<path d="M648.5 32.8L640.5 37.6V47V56.3L648.6 61L656.8 65.7L664.9 61.1L673 56.5V46.9V37.4L665.3 32.9C661.1 30.5 657.4 28.4 657.1 28.3C656.8 28.2 652.9 30.2 648.5 32.8Z" fill="#B9AEE1"/>
<path d="M283.5 46C278 49.3 272.7 52.4 271.7 53C270.1 53.9 270 55.5 270.2 68.2L270.5 82.4L282 89.1C288.3 92.9 293.9 95.9 294.4 96C294.8 96 300.6 93 307.1 89.2L319 82.5L318.7 68.1L318.5 53.6L307 46.9C300.7 43.1 295.1 40.1 294.5 40.1C294 40.1 289 42.8 283.5 46Z" fill="#B9AEE1"/>
<path d="M243.7 55.2L236.9 59.3L237.2 67.8L237.5 76.3L244.6 80.6L251.8 84.8L259.4 80.3L267 75.9V67.6V59.3L259.9 55.1C255.9 52.9 252.2 51 251.6 51C251 51.1 247.4 52.9 243.7 55.2Z" fill="#B9AEE1"/>
<path d="M150.8 53.8C148.4 55.2 148 56.1 148 60C148 64.2 148.3 64.7 151.5 66.4C154.9 68.3 155.1 68.3 158.5 66.4C161.7 64.7 162 64.2 162 60C162 56 161.6 55.2 159.1 53.7C155.5 51.6 154.2 51.6 150.8 53.8Z" fill="#B9AEE1"/>
<path d="M131.8 68.7L124 73.2V82.9V92.5L132.1 97.1L140.3 101.7L147.4 97.7C151.3 95.5 155 93.2 155.5 92.5C156.1 91.8 156.4 88.9 156.4 85.9C156.3 82.9 156.1 78.9 156.1 76.8C156 73.3 155.6 73 148 68.6C143.7 66.1 140 64 139.8 64.1C139.6 64.2 136 66.2 131.8 68.7Z" fill="#B9AEE1"/>
<path d="M56.7 84.4L34 97.5V124L34.1 150.5L56.6 163.4L79.2 176.3L82.4 174.7C84.1 173.8 94.3 168 105 161.8L124.5 150.4L124.7 124L125 97.5L106.8 87C96.8 81.2 86.6 75.3 84.1 73.9L79.5 71.2L56.7 84.4Z" fill="#B9AEE1"/>
<path d="M308.7 92.5L301 97V106.3V115.6L308.7 120.1C312.9 122.5 316.6 124.6 317 124.8C317.4 124.9 321.3 123 325.8 120.4L334 115.8V106.4V97L326.3 92.5C322 90 318.1 88 317.5 88C316.9 88 313 90 308.7 92.5Z" fill="#B9AEE1"/>
<path d="M287.3 100.2C284.3 102 284 102.7 284 106.9C284 111.3 284.2 111.7 287.5 113.3C290.7 114.8 291.3 114.8 294.4 113.3C297.4 111.9 297.9 111.2 298.2 107.2C298.5 103 298.3 102.6 294.8 100.4C292.7 99.1 290.9 98 290.8 98.1C290.6 98.1 289 99.1 287.3 100.2Z" fill="#B9AEE1"/>
<path d="M524.3 107.1L512 114.3V128.4V142.5L524.4 149.6L536.7 156.7L548.9 149.6L561 142.6V128.4V114.2L548.9 107.1C542.2 103.2 536.7 100 536.6 100C536.6 100 531 103.2 524.3 107.1Z" fill="#B9AEE1"/>
<path d="M138.2 108.2L127.9 114.2L128.2 126.3L128.5 138.4L137.5 143.7C142.5 146.6 147.3 149.2 148.2 149.5C149.2 149.9 153.9 147.8 159.9 144.3L169.9 138.5L170 126.3V114.1L159.8 108C154.2 104.7 149.4 102 149.1 102C148.7 102.1 143.9 104.8 138.2 108.2Z" fill="#B9AEE1"/>
<path d="M617.3 111.8L609 116.5V126.1V135.6L616.3 139.7C620.2 142 624 144 624.6 144.2C625.2 144.4 629.3 142.5 633.9 140L642.1 135.5L641.8 126.1L641.5 116.6L636.5 113.7C633.8 112.1 630.1 110 628.5 109L625.5 107.1L617.3 111.8Z" fill="#B9AEE1"/>
<path d="M594.6 119.6C591.5 121.7 591 122.6 591 126C591 129.6 591.4 130.1 595.1 132L599.1 134.1L602.6 132C605.6 130.1 606 129.4 606 125.4C606 121.3 605.7 120.9 602.1 119.1L598.3 117.1L594.6 119.6Z" fill="#B9AEE1"/>
<path d="M481.3 132C478.4 133.7 478 134.5 478 138.3C478 142.2 478.3 142.8 481.7 144.7L485.4 146.8L489.2 144.7C492.6 142.7 493 142.1 493 138.3C493 134.6 492.6 134 489.4 132.1C485.1 129.5 485.3 129.5 481.3 132Z" fill="#B9AEE1"/>
<path d="M590.2 143.1L578 150.1V164.3V178.5L590.2 185.6L602.4 192.6L614.7 185.6L627 178.5V164.4V150.2L617.8 145C612.7 142.1 607.1 138.9 605.4 137.9L602.4 136.1L590.2 143.1Z" fill="#B9AEE1"/>
<path d="M492.1 146.9L484.1 151.5L484 161.2V170.9L492.1 175.4L500.2 180L508.6 175.3L517 170.5L516.8 161.1L516.5 151.6L508.4 147L500.2 142.3L492.1 146.9Z" fill="#B9AEE1"/>
<path d="M163.3 147.4L156 151.5V160.2V168.8L163.3 173L170.5 177.2L176.8 173.9C180.3 172 183.5 170.1 184 169.5C184.4 169 185 164.8 185.1 160.2C185.5 151 186 151.8 176 146.3L170.5 143.3L163.3 147.4Z" fill="#B9AEE1"/>
<path d="M250.8 157.3L233 167.5V188.1V208.8L250.5 219C260.1 224.6 268.6 229 269.3 228.8C270 228.6 278.3 224.1 287.8 218.6L305 208.7L304.8 188.2L304.5 167.6L297.5 163.5C280 153.1 271.3 148 269.9 147.6C269.1 147.3 260.5 151.6 250.8 157.3Z" fill="#B9AEE1"/>
<path d="M551.8 152.2L545 156.2V164.9V173.6L552.3 177.7L559.5 181.8L566 178.2C569.6 176.3 573 174.3 573.5 173.9C574.1 173.5 574.4 169.5 574.2 164.6L573.9 156L567 152C563.2 149.8 559.8 148 559.3 148.1C558.9 148.1 555.5 150 551.8 152.2Z" fill="#B9AEE1"/>
<path d="M324.3 168.4L312 175.5V189.5V203.5L324.5 210.7L337 217.9L349 210.8L361 203.8V189.5V175.2L354.3 171.3C350.5 169.1 345 166 342 164.3L336.5 161.3L324.3 168.4Z" fill="#B9AEE1"/>
<path d="M738.8 165.3C735.4 167.3 735 167.9 735 171.6C735 175.3 735.4 175.8 738.9 177.8L742.8 180L746.4 177.9C749.6 176 750 175.4 750 171.5C750 167.6 749.6 167 746.4 165.1C744.5 163.9 742.8 163 742.7 163C742.6 163.1 740.8 164.1 738.8 165.3Z" fill="#B9AEE1"/>
<path d="M480.3 186.3L470 192.4V204.5V216.5L480.6 222.6L491.2 228.7L501.6 222.7L512 216.7V204.5V192.2L501.6 186.1C495.8 182.7 491 180 490.8 180.1C490.6 180.1 485.9 182.9 480.3 186.3Z" fill="#B9AEE1"/>
<path d="M588.7 192.3C585.3 194.2 585 194.8 585 198.7C585 202.6 585.3 203.1 588.7 204.9C592.4 206.8 592.5 206.8 596.2 204.9C599.7 203.1 600 202.6 600 198.7C600 194.7 599.7 194.2 596.2 192.2L592.5 190.1L588.7 192.3Z" fill="#B9AEE1"/>
<path d="M384.3 193.1C381.4 194.9 381 195.7 381 199.5C381 203.4 381.4 204 384.6 205.9L388.3 208.1L392.2 205.5C395.6 203.2 396 202.5 395.8 199.4C395.6 196.5 394.8 195.3 392.1 193.4C387.8 190.5 388.3 190.5 384.3 193.1Z" fill="#B9AEE1"/>
<path d="M804.8 199.8L793.1 206.5V221V235.5L804.9 242.2C811.5 246 817.2 249 817.6 248.9C818.1 248.9 823.7 245.8 830 242.1L841.5 235.4V221.1V206.8L829.7 199.9C823.2 196.1 817.6 193 817.2 193.1C816.8 193.1 811.2 196.1 804.8 199.8Z" fill="#B9AEE1"/>
<path d="M364.7 208.5L357 213V222.4V231.8L365 236.5C369.4 239.1 373.4 241 373.8 240.8C374.3 240.7 378.1 238.5 382.3 236.1L390 231.6V222.5V213.3L382 208.6C377.6 206.1 373.7 204 373.3 204C372.8 204 369 206 364.7 208.5Z" fill="#B9AEE1"/>
<path d="M296 220.2C287.5 225.1 277.5 231 273.8 233.1L267 237.1V263.4V289.7L286.8 301.1C297.6 307.3 307.9 313.2 309.6 314.2L312.7 316L332.1 304.6C342.8 298.4 353 292.5 354.8 291.6L358 289.9L357.8 263.4L357.5 236.8L335.5 224C323.4 216.9 313.1 211.1 312.5 211.1C312 211.1 304.5 215.2 296 220.2Z" fill="#B9AEE1"/>
<path d="M461.8 226.1L455 230.1V238.9V247.6L459.3 249.7C461.6 250.9 464.9 252.8 466.5 253.9L469.5 255.8L476.5 251.8C480.4 249.5 483.7 247.6 483.8 247.4C484.6 246.8 484.6 232.3 483.8 230.8C483 229.1 471.3 222 469.4 222C468.9 222 465.5 223.8 461.8 226.1Z" fill="#B9AEE1"/>
<path d="M240.6 227.7L232.9 232.2L233.2 240.7L233.5 249.2L241 253.3L248.6 257.4L255.8 253L263.1 248.7L262.8 240.2L262.5 231.7L255.4 227.4L248.2 223.2L240.6 227.7Z" fill="#B9AEE1"/>
<path d="M133.8 237.4L111 250.5L111.3 276.9L111.5 303.3L132 315.2C158.9 330.8 156.4 329.7 160.4 327.4C162.2 326.4 172.3 320.5 182.8 314.5L202 303.5V276.8V250.2L196.8 247.3C193.9 245.7 183.9 239.9 174.5 234.5C165.2 229.2 157.3 224.6 157 224.5C156.7 224.4 146.3 230.2 133.8 237.4Z" fill="#B9AEE1"/>
<path d="M668.2 239.3L660.9 243.5L661.2 252.3L661.5 261.2L668.6 265.1L675.7 269L682.6 265.1L689.5 261.2V252.1V242.9L682.5 239L675.5 235.1L668.2 239.3Z" fill="#B9AEE1"/>
<path d="M371.7 247.4L361 253.5V265.6V277.6L370.9 283.3C376.3 286.4 381.2 289 381.7 289.2C382.3 289.4 387.3 286.9 392.9 283.7L403 277.8V265.5V253.3L392.7 247.3L382.3 241.4L371.7 247.4Z" fill="#B9AEE1"/>
<path d="M216.3 256.2L206 262.2V274.5V286.9L211.8 290.3C214.9 292.1 219.6 294.8 222.1 296.3L226.6 298.9L236.7 293L246.9 287L247.2 278.8C247.4 274.2 247.3 268.5 247 266.1C246.5 261.9 246.3 261.6 239.5 257.8C235.7 255.6 231.2 253 229.5 252.1L226.5 250.3L216.3 256.2Z" fill="#B9AEE1"/>
<path d="M542.2 278.2L531.9 284.2L532.2 296.3L532.5 308.4L541.5 313.7C546.5 316.6 551.3 319.2 552.3 319.6C553.4 319.9 557.7 318 564 314.3L574 308.5V296.3V284.1L564.6 278.6C559.5 275.5 554.6 272.8 553.9 272.6C553.1 272.4 547.9 274.9 542.2 278.2Z" fill="#B9AEE1"/>
<path d="M396.3 287.2L389 291.4V299.9V308.5L396.5 312.7L404 316.9L411.3 312.6L418.5 308.3L418.8 300.6C419 295.6 418.7 292.3 417.9 291.4C416.8 290.1 405 283 403.9 283C403.7 283 400.2 284.9 396.3 287.2Z" fill="#B9AEE1"/>
<path d="M582.9 299.5C579.5 301.7 579.4 302 579.9 306.1C580.4 309.6 581.1 310.7 583.8 312.3C586.9 314.1 587.1 314.1 590.3 312.3C593.1 310.7 593.5 309.8 593.8 305.8C594.1 301.5 593.9 301.1 590.5 299.1C588.5 298 586.8 297 586.7 297.1C586.6 297.1 584.9 298.2 582.9 299.5Z" fill="#B9AEE1"/>
<path d="M489.5 308.4L471.5 318.7L471.2 339.2L471 359.8L489.1 370.3L507.3 380.8L524.9 370.6L542.5 360.5L542.8 339.5L543 318.5L530.8 311.5C524.1 307.6 516.1 303.1 513 301.3L507.4 298.1L489.5 308.4Z" fill="#B9AEE1"/>
<path d="M209.2 303.7L200.9 308.4L201.2 317.9L201.5 327.4L209.5 332L217.6 336.6L225.7 332.1L233.9 327.5L234 317.9V308.4L226.3 303.9C222.1 301.5 218.4 299.4 218.1 299.3C217.8 299.1 213.8 301.1 209.2 303.7Z" fill="#B9AEE1"/>
<path d="M759 311.3L741.5 321.6L741.2 341.7C741 361.7 741 361.9 743.2 363.5C746.9 366.2 776.4 383 777.4 383C777.9 383 786.1 378.5 795.6 372.9L813 362.8V342V321.3L795.4 311.1C785.7 305.6 777.5 301 777.1 301C776.8 301.1 768.6 305.7 759 311.3Z" fill="#B9AEE1"/>
<path d="M99 318.8C91.6 323.1 83.6 327.7 81.3 329L77 331.5V352V372.6L95.1 383C109.2 391 113.6 393.1 114.9 392.4C115.8 391.8 123.8 387.2 132.8 382.1L149 372.8V352V331.2L143.8 328.3C140.9 326.7 132.9 322.1 126.1 318.2C119.3 314.2 113.5 311 113.1 311C112.8 311 106.4 314.5 99 318.8Z" fill="#B9AEE1"/>
<path d="M572.5 314.1C570.9 315.2 565.8 318.2 561.3 320.7L553 325.4V339.9L553.1 354.5L565.1 361.3L577.1 368.1L589.6 360.9L602 353.8V339.9V326.1L590.1 319C583.5 315.2 577.5 312 576.8 312.1C576.1 312.1 574.2 313 572.5 314.1Z" fill="#B9AEE1"/>
<path d="M169.1 329.2L156.9 336.2L157.2 350.7L157.5 365.3L169.3 372.1L181.1 379L193.6 371.8L206.1 364.5L205.8 350.5L205.5 336.6L193.4 329.4L181.3 322.3L169.1 329.2Z" fill="#B9AEE1"/>
<path d="M612 326.8L605.5 330.6L605.2 339.2L604.9 347.7L611.9 351.9C615.7 354.1 619.3 356 619.8 356C620.3 356 623.9 354.1 627.9 351.9L635 347.7V339.5V331.2L628.1 327.1C624.3 324.9 620.6 323 619.8 323C619.1 323 615.6 324.7 612 326.8Z" fill="#B9AEE1"/>
<path d="M228.8 334.4C225.4 336.3 225 336.9 225 340.7C225 344.4 225.4 345.1 228.7 347.1L232.3 349.4L235.9 347.3C239.1 345.5 239.5 344.7 239.8 340.9C240 336.7 239.8 336.4 236.3 334.4L232.5 332.2L228.8 334.4Z" fill="#B9AEE1"/>
<path d="M546.1 363.9L538 368.5V378.1V387.8L546.1 392.4L554.2 397L562.1 392.4C569.9 387.9 570 387.8 570.1 383.7C570.1 381.4 570.2 377.3 570.3 374.7C570.4 372 570.2 369.4 569.9 368.9C569.6 368.4 565.9 366 561.8 363.6L554.2 359.3L546.1 363.9Z" fill="#B9AEE1"/>
<path d="M576.8 372.3C573.4 374.3 573 374.9 573 378.7C573 382.7 573.3 383.1 577 385L580.9 387L584.5 384.9C587.6 383 588 382.4 588 378.5C588 374.6 587.6 374 584.4 372.1C582.5 370.9 580.8 370 580.7 370C580.6 370.1 578.8 371.1 576.8 372.3Z" fill="#B9AEE1"/>
</svg>
